<svg width="15" height="24" viewBox="0 0 15 24" fill="none" xmlns="http://www.w3.org/2000/svg">
<path d="M13.5624 4.08476H9.57944C8.84618 4.08476 8.25179 4.67918 8.25179 5.41241V9.39537H13.5624C13.7134 9.39202 13.8566 9.46228 13.9464 9.58376C14.0361 9.70524 14.0613 9.8627 14.0138 10.0061L13.0313 12.9269C12.9408 13.195 12.6903 13.3762 12.4073 13.3783H8.25179V23.3357C8.25179 23.7023 7.95453 23.9995 7.58796 23.9995H4.26884C3.90222 23.9995 3.60501 23.7023 3.60501 23.3357V13.3783H1.61353C1.24692 13.3783 0.949707 13.0811 0.949707 12.7145V10.0592C0.949707 9.69263 1.24692 9.39537 1.61353 9.39537H3.60501V5.41241C3.60501 2.47944 5.9827 0.101807 8.91562 0.101807H13.5624C13.929 0.101807 14.2262 0.399015 14.2262 0.765632V3.42094C14.2262 3.78755 13.929 4.08476 13.5624 4.08476Z" fill="#250601"/>
</svg>
