<svg width="25" height="24" viewBox="0 0 25 24" fill="none" xmlns="http://www.w3.org/2000/svg">
<path fill-rule="evenodd" clip-rule="evenodd" d="M17.694 0.101807H7.07283C3.40662 0.101807 0.43457 3.07386 0.43457 6.74006V17.3613C0.43457 21.0275 3.40662 23.9995 7.07283 23.9995H17.694C21.3602 23.9995 24.3323 21.0275 24.3323 17.3613V6.74006C24.3323 3.07386 21.3602 0.101807 17.694 0.101807ZM22.0089 17.3613C22.0016 19.7412 20.074 21.6688 17.694 21.6761H7.07283C4.69281 21.6688 2.76525 19.7412 2.75796 17.3613V6.74006C2.76525 4.36005 4.69281 2.43249 7.07283 2.4252H17.694C20.074 2.43249 22.0016 4.36005 22.0089 6.74006V17.3613ZM18.6898 7.07198C19.423 7.07198 20.0174 6.47756 20.0174 5.74433C20.0174 5.01109 19.423 4.41667 18.6898 4.41667C17.9565 4.41667 17.3621 5.01109 17.3621 5.74433C17.3621 6.47756 17.9565 7.07198 18.6898 7.07198ZM12.3834 6.07624C9.08385 6.07624 6.409 8.75108 6.409 12.0507C6.409 15.3503 9.08385 18.0251 12.3834 18.0251C15.683 18.0251 18.3579 15.3503 18.3579 12.0507C18.3615 10.4651 17.7331 8.94339 16.6119 7.82221C15.4907 6.70102 13.969 6.07271 12.3834 6.07624ZM8.73239 12.0507C8.73239 14.0671 10.367 15.7017 12.3834 15.7017C14.3999 15.7017 16.0345 14.0671 16.0345 12.0507C16.0345 10.0342 14.3999 8.39963 12.3834 8.39963C10.367 8.39963 8.73239 10.0342 8.73239 12.0507Z" fill="#250601"/>
</svg>
