<svg width="24" height="24" viewBox="0 0 24 24" fill="none" xmlns="http://www.w3.org/2000/svg">
<path fill-rule="evenodd" clip-rule="evenodd" d="M2.68094 0.101807H21.2681C22.7346 0.101807 23.9234 1.29063 23.9234 2.75711V21.3442C23.9234 22.8108 22.7346 23.9995 21.2681 23.9995H2.68094C1.21445 23.9995 0.0256348 22.8108 0.0256348 21.3442V2.75711C0.0256348 1.29063 1.21445 0.101807 2.68094 0.101807ZM6.66389 20.0166C7.03051 20.0166 7.32772 19.7193 7.32772 19.3528V10.0592C7.32772 9.69263 7.03051 9.39537 6.66389 9.39537H4.67241C4.3058 9.39537 4.00859 9.69263 4.00859 10.0592V19.3528C4.00859 19.7193 4.3058 20.0166 4.67241 20.0166H6.66389ZM5.66815 8.06772C4.56829 8.06772 3.67668 7.1761 3.67668 6.07624C3.67668 4.97637 4.56829 4.08476 5.66815 4.08476C6.76802 4.08476 7.65963 4.97637 7.65963 6.07624C7.65963 7.1761 6.76802 8.06772 5.66815 8.06772ZM19.2766 20.0166C19.6431 20.0166 19.9404 19.7193 19.9404 19.3528V13.2456C19.9836 11.1357 18.4237 9.33499 16.3292 9.07673C14.8648 8.94297 13.4459 9.62691 12.6383 10.8558V10.0592C12.6383 9.69263 12.3411 9.39537 11.9745 9.39537H9.98302C9.61646 9.39537 9.31919 9.69263 9.31919 10.0592V19.3528C9.31919 19.7193 9.61646 20.0166 9.98302 20.0166H11.9745C12.3411 20.0166 12.6383 19.7193 12.6383 19.3528V14.3741C12.6383 13.2742 13.53 12.3826 14.6298 12.3826C15.7296 12.3826 16.6213 13.2742 16.6213 14.3741V19.3528C16.6213 19.7193 16.9185 20.0166 17.2851 20.0166H19.2766Z" fill="#250601"/>
</svg>
