<svg width="54" height="54" viewBox="0 0 54 54" fill="none" xmlns="http://www.w3.org/2000/svg">
<path d="M22.8875 31.1125C24.0833 32.25 24.0833 34.1167 22.8875 35.2542C21.75 36.3917 19.8833 36.3917 18.7458 35.2542C16.014 32.5183 14.4796 28.81 14.4796 24.9437C14.4796 21.0775 16.014 17.3692 18.7458 14.6333L29.0708 4.30833C31.8067 1.57652 35.5149 0.0421486 39.3812 0.0421486C43.2475 0.0421486 46.9557 1.57652 49.6916 4.30833C52.4234 7.04425 53.9578 10.7525 53.9578 14.6187C53.9578 18.485 52.4234 22.1933 49.6916 24.9292L45.3458 29.275C45.375 26.8833 44.9958 24.4917 44.1791 22.2167L45.55 20.8167C46.3676 20.0078 47.0167 19.0449 47.4597 17.9835C47.9027 16.9221 48.1309 15.7834 48.1309 14.6333C48.1309 13.4832 47.9027 12.3445 47.4597 11.2832C47.0167 10.2218 46.3676 9.25883 45.55 8.45C44.7411 7.63235 43.7782 6.98323 42.7168 6.54022C41.6554 6.09721 40.5167 5.86911 39.3666 5.86911C38.2165 5.86911 37.0778 6.09721 36.0165 6.54022C34.9551 6.98323 33.9921 7.63235 33.1833 8.45L22.8875 18.7458C22.0698 19.5547 21.4207 20.5176 20.9777 21.579C20.5347 22.6404 20.3066 23.7791 20.3066 24.9292C20.3066 26.0793 20.5347 27.218 20.9777 28.2793C21.4207 29.3407 22.0698 30.3037 22.8875 31.1125ZM31.1125 18.7458C32.25 17.6083 34.1166 17.6083 35.2541 18.7458C37.9859 21.4817 39.5203 25.19 39.5203 29.0562C39.5203 32.9225 37.9859 36.6308 35.2541 39.3667L24.9291 49.6917C22.1932 52.4235 18.485 53.9578 14.6187 53.9578C10.7524 53.9578 7.04421 52.4235 4.3083 49.6917C1.57649 46.9558 0.0421143 43.2475 0.0421143 39.3813C0.0421143 35.515 1.57649 31.8067 4.3083 29.0708L8.65413 24.725C8.62496 27.1167 9.00413 29.5083 9.8208 31.8125L8.44996 33.1833C7.63231 33.9922 6.9832 34.9551 6.54019 36.0165C6.09718 37.0779 5.86907 38.2166 5.86907 39.3667C5.86907 40.5168 6.09718 41.6555 6.54019 42.7168C6.9832 43.7782 7.63231 44.7412 8.44996 45.55C9.25879 46.3677 10.2218 47.0168 11.2831 47.4598C12.3445 47.9028 13.4832 48.1309 14.6333 48.1309C15.7834 48.1309 16.9221 47.9028 17.9835 47.4598C19.0448 47.0168 20.0078 46.3677 20.8166 45.55L31.1125 35.2542C31.9301 34.4453 32.5792 33.4824 33.0222 32.421C33.4653 31.3596 33.6934 30.2209 33.6934 29.0708C33.6934 27.9207 33.4653 26.782 33.0222 25.7207C32.5792 24.6593 31.9301 23.6963 31.1125 22.8875C30.8292 22.6221 30.6034 22.3013 30.449 21.9451C30.2947 21.5889 30.215 21.2049 30.215 20.8167C30.215 20.4285 30.2947 20.0444 30.449 19.6882C30.6034 19.332 30.8292 19.0113 31.1125 18.7458Z" fill="#250601"/>
</svg>
