<svg width="25" height="21" viewBox="0 0 25 21" fill="none" xmlns="http://www.w3.org/2000/svg">
<path d="M24.0915 3.0372C23.4749 3.85971 22.7296 4.57718 21.8843 5.16192C21.8843 5.37677 21.8843 5.59163 21.8843 5.81843C21.8911 9.7202 20.3325 13.4615 17.5581 16.2037C14.7836 18.9458 11.0253 20.4593 7.12578 20.4049C4.87135 20.4124 2.64578 19.8977 0.62344 18.9009C0.514386 18.8532 0.44406 18.7454 0.444472 18.6263V18.495C0.444472 18.3236 0.583358 18.1848 0.754678 18.1848C2.97073 18.1116 5.10771 17.3433 6.86329 15.9884C4.85747 15.9479 3.05274 14.7597 2.22217 12.9326C2.18023 12.8329 2.19328 12.7183 2.25665 12.6305C2.32001 12.5428 2.4245 12.4945 2.53238 12.503C3.14199 12.5642 3.75771 12.5075 4.34588 12.3358C2.13161 11.8762 0.467825 10.0379 0.229711 7.78793C0.221254 7.68 0.26962 7.57551 0.357351 7.51205C0.445069 7.44872 0.559473 7.43558 0.659233 7.47766C1.25344 7.73987 1.89489 7.87795 2.54431 7.88339C0.604082 6.60999 -0.233971 4.18781 0.504123 1.98679C0.580317 1.77292 0.763361 1.61491 0.985994 1.57086C1.20862 1.5268 1.43801 1.60318 1.58984 1.77193C4.20806 4.55849 7.80553 6.219 11.6237 6.40331C11.526 6.01306 11.4779 5.61199 11.4805 5.20966C11.5163 3.10002 12.8216 1.22072 14.7855 0.451557C16.7492 -0.317591 18.9828 0.175619 20.4407 1.70031C21.4343 1.511 22.395 1.17723 23.2921 0.709574C23.3579 0.668549 23.4412 0.668549 23.5069 0.709574C23.548 0.775319 23.548 0.858682 23.5069 0.924427C23.0724 1.91948 22.3383 2.75404 21.4071 3.31174C22.2226 3.21718 23.0237 3.02481 23.7933 2.7388C23.8581 2.69469 23.9432 2.69469 24.008 2.7388C24.0623 2.76362 24.1029 2.81111 24.119 2.86861C24.1351 2.92611 24.125 2.98778 24.0915 3.0372Z" fill="#250601"/>
</svg>
